<svg width="20" height="20" viewBox="0 0 20 20" fill="none" xmlns="http://www.w3.org/2000/svg">
<path d="M13.3839 2.04506C13.6183 2.27947 13.7499 2.59735 13.7499 2.92881C13.7499 3.26027 13.6183 3.57815 13.3839 3.81256L7.19643 10.0001L13.3839 16.1876C13.6116 16.4233 13.7376 16.7391 13.7348 17.0668C13.7319 17.3946 13.6005 17.7081 13.3687 17.9398C13.1369 18.1716 12.8234 18.3031 12.4957 18.3059C12.1679 18.3088 11.8522 18.1828 11.6164 17.9551L4.54518 10.8838C4.31084 10.6494 4.1792 10.3315 4.1792 10.0001C4.1792 9.6686 4.31084 9.35072 4.54518 9.11631L11.6164 2.04506C11.8508 1.81072 12.1687 1.67908 12.5002 1.67908C12.8316 1.67908 13.1495 1.81072 13.3839 2.04506Z" fill="#333333"/>
</svg>
