<svg width="10" height="18" viewBox="0 0 10 18" fill="none" xmlns="http://www.w3.org/2000/svg">
<path d="M9.38375 1.04506C9.61809 1.27947 9.74973 1.59735 9.74973 1.92881C9.74973 2.26027 9.61809 2.57815 9.38375 2.81256L3.19625 9.00006L9.38375 15.1876C9.61145 15.4233 9.73744 15.7391 9.73459 16.0668C9.73174 16.3946 9.60028 16.7081 9.36852 16.9398C9.13676 17.1716 8.82325 17.3031 8.4955 17.3059C8.16775 17.3088 7.852 17.1828 7.61625 16.9551L0.544999 9.88381C0.31066 9.6494 0.179016 9.33152 0.179016 9.00006C0.179016 8.6686 0.31066 8.35072 0.544999 8.11631L7.61625 1.04506C7.85066 0.810721 8.16854 0.679077 8.5 0.679077C8.83145 0.679077 9.14934 0.810721 9.38375 1.04506Z" fill="#333333"/>
</svg>
