<svg width="30" height="30" viewBox="0 0 30 30" fill="none" xmlns="http://www.w3.org/2000/svg">
<path opacity="0.5" d="M3.80615 14.6875C3.96365 15.58 4.1849 16.6137 4.44365 17.8212L4.97865 20.3212C5.5874 23.1625 5.8924 24.5825 6.92365 25.4163C7.9549 26.25 9.4074 26.25 12.3124 26.25H17.6874C20.5924 26.25 22.0449 26.25 23.0749 25.4163C24.1074 24.5825 24.4124 23.1625 25.0199 20.3212L25.5562 17.8212C25.8149 16.6137 26.0362 15.58 26.1937 14.6875H3.80615Z" fill="#489896"/>
<path fill-rule="evenodd" clip-rule="evenodd" d="M11.5625 17.5C11.5625 17.2514 11.6613 17.0129 11.8371 16.8371C12.0129 16.6613 12.2514 16.5625 12.5 16.5625H17.5C17.7486 16.5625 17.9871 16.6613 18.1629 16.8371C18.3387 17.0129 18.4375 17.2514 18.4375 17.5C18.4375 17.7486 18.3387 17.9871 18.1629 18.1629C17.9871 18.3387 17.7486 18.4375 17.5 18.4375H12.5C12.2514 18.4375 12.0129 18.3387 11.8371 18.1629C11.6613 17.9871 11.5625 17.7486 11.5625 17.5Z" fill="#489896"/>
<path d="M10.4126 3.33132C10.5288 3.11802 10.7232 2.95813 10.955 2.88534C11.1867 2.81255 11.4376 2.83254 11.6549 2.94111C11.8722 3.04967 12.0389 3.23832 12.1198 3.46733C12.2008 3.69634 12.1897 3.94783 12.0889 4.16882L9.79512 8.75632C10.3985 8.75216 11.0593 8.75007 11.7776 8.75007H18.2226C18.9418 8.74924 19.6026 8.75132 20.2051 8.75632L17.9114 4.16882C17.8026 3.94664 17.786 3.69047 17.8653 3.45614C17.9446 3.22181 18.1133 3.02832 18.3346 2.91782C18.5559 2.80732 18.812 2.78878 19.0469 2.86623C19.2819 2.94369 19.4767 3.11086 19.5889 3.33132L22.3401 8.83382C24.0314 8.96382 25.0926 9.29632 25.7776 10.1426C26.3226 10.8163 26.4976 11.6538 26.4339 12.8126H26.2501C26.3126 12.8126 26.3735 12.8184 26.4326 12.8301C26.3892 13.4533 26.3099 14.0735 26.1951 14.6876H3.80637C3.69073 14.0735 3.61059 13.4533 3.56637 12.8301C3.62711 12.8197 3.68852 12.8139 3.75012 12.8126H3.56637C3.50262 11.6538 3.67887 10.8163 4.22262 10.1426C4.90762 9.29507 5.96887 8.96382 7.66012 8.83382L10.4126 3.33132Z" fill="#489896"/>
</svg>
