<svg width="25" height="24" viewBox="0 0 25 24" fill="none" xmlns="http://www.w3.org/2000/svg">
<path d="M16.2778 2.5C16.5091 2.50003 16.7324 2.58496 16.9052 2.73868C17.0781 2.89239 17.1885 3.10421 17.2156 3.33394L17.2222 3.44444V4.38889H18.1667C18.8894 4.38885 19.5848 4.66497 20.1106 5.16077C20.6364 5.65656 20.9529 6.33455 20.9953 7.056L21 7.22222V18.5556C21 19.2783 20.7239 19.9737 20.2281 20.4995C19.7323 21.0253 19.0543 21.3418 18.3329 21.3842L18.1667 21.3889H6.83333C6.11063 21.3889 5.41524 21.1128 4.88942 20.617C4.3636 20.1212 4.04712 19.4432 4.00472 18.7218L4 18.5556V7.22222C3.99996 6.49952 4.27608 5.80412 4.77188 5.27831C5.26767 4.75249 5.94566 4.43601 6.66711 4.39361L6.83333 4.38889H7.77778V3.44444C7.77804 3.20372 7.87022 2.97219 8.03547 2.79715C8.20072 2.62211 8.42657 2.51678 8.66687 2.50267C8.90718 2.48856 9.1438 2.56675 9.3284 2.72125C9.51299 2.87575 9.63162 3.09491 9.66006 3.33394L9.66667 3.44444V4.38889H15.3333V3.44444C15.3333 3.19396 15.4328 2.95374 15.61 2.77662C15.7871 2.5995 16.0273 2.5 16.2778 2.5ZM19.1111 9.11111H5.88889V18.2014C5.88889 18.8672 6.25344 19.4159 6.72283 19.4915L6.83333 19.5H18.1667C18.6512 19.5 19.0507 18.9994 19.1045 18.3525L19.1111 18.2014V9.11111Z" fill="#5BC0A4"/>
<path d="M12.6883 11.9445C12.9196 11.9445 13.1429 12.0294 13.3157 12.1831C13.4886 12.3369 13.599 12.5487 13.6261 12.7784L13.6327 12.8889V15.7222C13.6324 15.963 13.5403 16.1945 13.375 16.3695C13.2098 16.5446 12.9839 16.6499 12.7436 16.664C12.5033 16.6781 12.2667 16.5999 12.0821 16.4454C11.8975 16.2909 11.7789 16.0718 11.7504 15.8327L11.7438 15.7222V13.8333C11.5031 13.8331 11.2716 13.7409 11.0965 13.5757C10.9215 13.4104 10.8161 13.1846 10.802 12.9443C10.7879 12.7039 10.8661 12.4673 11.0206 12.2827C11.1751 12.0981 11.3943 11.9795 11.6333 11.9511L11.7438 11.9445H12.6883Z" fill="#5BC0A4"/>
</svg>
