<svg width="16" height="16" viewBox="0 0 16 16" fill="none" xmlns="http://www.w3.org/2000/svg">
<path d="M6.60265 9.80714L12.0889 4.32091C12.2183 4.19144 12.3694 4.12671 12.542 4.12671C12.7146 4.12671 12.8657 4.19144 12.9952 4.32091C13.1246 4.45038 13.1894 4.60423 13.1894 4.78247C13.1894 4.9607 13.1246 5.11434 12.9952 5.24338L7.05579 11.1989C6.92632 11.3284 6.77527 11.3931 6.60265 11.3931C6.43002 11.3931 6.27898 11.3284 6.14951 11.1989L3.36593 8.41536C3.23646 8.28589 3.17432 8.13225 3.1795 7.95445C3.18468 7.77664 3.25222 7.62279 3.38212 7.49289C3.51202 7.36299 3.66587 7.29826 3.84367 7.29869C4.02148 7.29912 4.17511 7.36386 4.30458 7.49289L6.60265 9.80714Z" fill="#489896"/>
</svg>
