<svg width="17" height="16" viewBox="0 0 17 16" fill="none" xmlns="http://www.w3.org/2000/svg">
<path d="M6.6939 10.0693L12.2614 4.50177C12.3928 4.37038 12.5461 4.30469 12.7213 4.30469C12.8964 4.30469 13.0497 4.37038 13.1811 4.50177C13.3125 4.63315 13.3782 4.78929 13.3782 4.97016C13.3782 5.15104 13.3125 5.30695 13.1811 5.4379L7.15375 11.4817C7.02236 11.6131 6.86908 11.6788 6.6939 11.6788C6.51871 11.6788 6.36543 11.6131 6.23404 11.4817L3.40923 8.65687C3.27784 8.52549 3.21477 8.36958 3.22003 8.18914C3.22529 8.0087 3.29383 7.85257 3.42565 7.72074C3.55747 7.58892 3.71361 7.52322 3.89404 7.52366C4.07448 7.5241 4.23039 7.58979 4.36178 7.72074L6.6939 10.0693Z" fill="#8D8F9A"/>
</svg>
