<svg width="16" height="16" viewBox="0 0 16 16" fill="none" xmlns="http://www.w3.org/2000/svg">
<path d="M8.00016 9.33333C9.47083 9.33333 10.6668 8.13733 10.6668 6.66667C10.6668 5.196 9.47083 4 8.00016 4C6.5295 4 5.3335 5.196 5.3335 6.66667C5.3335 8.13733 6.5295 9.33333 8.00016 9.33333ZM8.00016 5.33333C8.7355 5.33333 9.3335 5.93133 9.3335 6.66667C9.3335 7.402 8.7355 8 8.00016 8C7.26483 8 6.66683 7.402 6.66683 6.66667C6.66683 5.93133 7.26483 5.33333 8.00016 5.33333Z" fill="#666666"/>
<path d="M7.61323 14.5426C7.72614 14.623 7.86129 14.6662 7.9999 14.6662C8.1385 14.6662 8.27365 14.623 8.38656 14.5426C8.58923 14.3993 13.3526 10.9599 13.3332 6.66658C13.3332 3.72592 10.9406 1.33325 7.9999 1.33325C5.05923 1.33325 2.66656 3.72592 2.66656 6.66325C2.64723 10.9599 7.41056 14.3993 7.61323 14.5426ZM7.9999 2.66659C10.2059 2.66659 11.9999 4.46059 11.9999 6.66992C12.0139 9.62858 9.07456 12.2853 7.9999 13.1566C6.9259 12.2846 3.9859 9.62725 3.9999 6.66658C3.9999 4.46059 5.7939 2.66659 7.9999 2.66659Z" fill="#666666"/>
</svg>
