
<svg width="24" height="24" viewBox="0 0 24 24" fill="none" xmlns="http://www.w3.org/2000/svg">
<circle cx="12" cy="12" r="10" fill="#5bc0a4"/>
<path d="M6.72 12.74C7.11765 12.74 7.44 12.4176 7.44 12.02C7.44 11.6223 7.11765 11.3 6.72 11.3C6.32236 11.3 6 11.6223 6 12.02C6 12.4176 6.32236 12.74 6.72 12.74Z" stroke="#FBFCFC" stroke-width="1.5" stroke-linecap="round" stroke-linejoin="round"/>
<path d="M12 12.74C12.3976 12.74 12.72 12.4176 12.72 12.02C12.72 11.6223 12.3976 11.3 12 11.3C11.6024 11.3 11.28 11.6223 11.28 12.02C11.28 12.4176 11.6024 12.74 12 12.74Z" stroke="#FBFCFC" stroke-width="1.5" stroke-linecap="round" stroke-linejoin="round"/>
<path d="M17.28 12.74C17.6776 12.74 18 12.4176 18 12.02C18 11.6223 17.6776 11.3 17.28 11.3C16.8824 11.3 16.56 11.6223 16.56 12.02C16.56 12.4176 16.8824 12.74 17.28 12.74Z" stroke="#FBFCFC" stroke-width="1.5" stroke-linecap="round" stroke-linejoin="round"/>
</svg>