<svg width="24" height="24" viewBox="0 0 24 24" fill="none" xmlns="http://www.w3.org/2000/svg">
<path fill-rule="evenodd" clip-rule="evenodd" d="M12.0002 1.40003C10.6014 1.39817 9.2491 1.90188 8.19237 2.81837C7.13564 3.73486 6.44572 5.00236 6.24973 6.38736C6.05373 7.77235 6.36487 9.18152 7.12582 10.3552C7.88676 11.5289 9.04625 12.3881 10.3906 12.7744C8.48023 13.0064 6.84183 13.6816 5.60663 14.8992C4.03543 16.4464 3.24023 18.752 3.24023 21.76C3.24023 21.9616 3.32031 22.1549 3.46283 22.2974C3.60536 22.44 3.79867 22.52 4.00023 22.52C4.2018 22.52 4.39511 22.44 4.53764 22.2974C4.68016 22.1549 4.76023 21.9616 4.76023 21.76C4.76023 19.008 5.48503 17.152 6.67383 15.9808C7.86423 14.808 9.64343 14.2 12.0002 14.2C14.357 14.2 16.1362 14.808 17.3282 15.9808C18.5154 17.1536 19.2402 19.008 19.2402 21.76C19.2402 21.9616 19.3203 22.1549 19.4628 22.2974C19.6054 22.44 19.7987 22.52 20.0002 22.52C20.2018 22.52 20.3951 22.44 20.5376 22.2974C20.6802 22.1549 20.7602 21.9616 20.7602 21.76C20.7602 18.752 19.965 16.448 18.3922 14.8992C17.1602 13.6832 15.5202 13.0064 13.6098 12.7744C14.9497 12.3838 16.104 11.5233 16.8609 10.3507C17.6179 9.17813 17.9269 7.77202 17.7314 6.3901C17.5358 5.00817 16.8488 3.74302 15.7962 2.82652C14.7436 1.91003 13.3959 1.40359 12.0002 1.40003ZM7.72023 7.20003C7.72023 6.0649 8.17116 4.97627 8.97382 4.17361C9.77647 3.37096 10.8651 2.92003 12.0002 2.92003C13.1354 2.92003 14.224 3.37096 15.0267 4.17361C15.8293 4.97627 16.2802 6.0649 16.2802 7.20003C16.2802 8.33516 15.8293 9.42379 15.0267 10.2264C14.224 11.0291 13.1354 11.48 12.0002 11.48C10.8651 11.48 9.77647 11.0291 8.97382 10.2264C8.17116 9.42379 7.72023 8.33516 7.72023 7.20003Z" fill="#8D8F9A"/>
</svg>

