<svg width="18" height="22" viewBox="0 0 18 22" fill="none" xmlns="http://www.w3.org/2000/svg">
<path fill-rule="evenodd" clip-rule="evenodd" d="M9 0.40003C7.60121 0.398167 6.24887 0.901882 5.19214 1.81837C4.13541 2.73485 3.44549 4.00236 3.2495 5.38736C3.0535 6.77235 3.36464 8.18152 4.12559 9.35523C4.88654 10.5289 6.04602 11.3881 7.3904 11.7744C5.48 12.0064 3.8416 12.6816 2.60641 13.8992C1.03521 15.4464 0.240005 17.752 0.240005 20.76C0.240005 20.9616 0.320076 21.1549 0.462604 21.2974C0.605132 21.44 0.798441 21.52 1.00001 21.52C1.20157 21.52 1.39488 21.44 1.53741 21.2974C1.67993 21.1549 1.76001 20.9616 1.76001 20.76C1.76001 18.008 2.48481 16.152 3.67361 14.9808C4.86401 13.808 6.6432 13.2 9 13.2C11.3568 13.2 13.136 13.808 14.328 14.9808C15.5152 16.1536 16.24 18.008 16.24 20.76C16.24 20.9616 16.3201 21.1549 16.4626 21.2974C16.6051 21.44 16.7984 21.52 17 21.52C17.2016 21.52 17.3949 21.44 17.5374 21.2974C17.6799 21.1549 17.76 20.9616 17.76 20.76C17.76 17.752 16.9648 15.448 15.392 13.8992C14.16 12.6832 12.52 12.0064 10.6096 11.7744C11.9495 11.3838 13.1037 10.5233 13.8607 9.3507C14.6177 8.17813 14.9267 6.77202 14.7312 5.3901C14.5356 4.00817 13.8486 2.74302 12.796 1.82652C11.7433 0.910027 10.3957 0.403587 9 0.40003ZM4.72 6.20003C4.72 5.0649 5.17093 3.97627 5.97359 3.17361C6.77624 2.37096 7.86488 1.92003 9 1.92003C10.1351 1.92003 11.2238 2.37096 12.0264 3.17361C12.8291 3.97627 13.28 5.0649 13.28 6.20003C13.28 7.33516 12.8291 8.42379 12.0264 9.22645C11.2238 10.0291 10.1351 10.48 9 10.48C7.86488 10.48 6.77624 10.0291 5.97359 9.22645C5.17093 8.42379 4.72 7.33516 4.72 6.20003Z" fill="#8D8F9A"/>
</svg>
