<svg width="21" height="22" viewBox="0 0 21 22" fill="none" xmlns="http://www.w3.org/2000/svg">
<path fill-rule="evenodd" clip-rule="evenodd" d="M9.35708 3.17407C8.3262 3.17421 7.3101 3.4193 6.39252 3.88916C5.47495 4.35901 4.68215 5.04018 4.07947 5.87654C3.47678 6.71289 3.08146 7.68048 2.92608 8.69958C2.7707 9.71869 2.8597 10.7601 3.18576 11.7381C3.51181 12.716 4.06559 13.6025 4.80145 14.3245C5.53731 15.0464 6.43419 15.5832 7.41819 15.8905C8.40219 16.1979 9.44514 16.267 10.4611 16.0922C11.477 15.9174 12.4369 15.5037 13.2616 14.8852C13.3107 15.029 13.3919 15.1635 13.507 15.2778L16.7558 18.5266C16.9489 18.7137 17.2078 18.8173 17.4766 18.8151C17.7454 18.8129 18.0025 18.705 18.1925 18.5148C18.3825 18.3247 18.49 18.0674 18.4919 17.7986C18.4938 17.5298 18.3899 17.271 18.2026 17.0782L14.9537 13.8293C14.8437 13.7188 14.7096 13.6351 14.562 13.5848C15.2872 12.6182 15.7289 11.4687 15.8375 10.2652C15.9462 9.06165 15.7175 7.85165 15.1771 6.77079C14.6367 5.68993 13.806 4.78092 12.778 4.14565C11.7501 3.51038 10.5655 3.17395 9.35708 3.17407ZM4.49225 9.68025C4.49225 9.04139 4.61808 8.40879 4.86256 7.81856C5.10704 7.22833 5.46538 6.69204 5.91712 6.2403C6.36887 5.78856 6.90516 5.43022 7.49539 5.18574C8.08562 4.94125 8.71822 4.81542 9.35708 4.81542C9.99593 4.81542 10.6285 4.94125 11.2188 5.18574C11.809 5.43022 12.3453 5.78856 12.797 6.2403C13.2488 6.69204 13.6071 7.22833 13.8516 7.81856C14.0961 8.40879 14.2219 9.04139 14.2219 9.68025C14.2219 10.9705 13.7094 12.2079 12.797 13.1202C11.8847 14.0325 10.6473 14.5451 9.35708 14.5451C8.06684 14.5451 6.82946 14.0325 5.91712 13.1202C5.00479 12.2079 4.49225 10.9705 4.49225 9.68025Z" fill="#489896"/>
</svg>
