<svg width="25" height="24" viewBox="0 0 25 24" fill="none" xmlns="http://www.w3.org/2000/svg">
<path d="M19.6073 10.7742V18.2222C19.6073 18.6937 19.42 19.1459 19.0866 19.4793C18.7532 19.8127 18.3011 20 17.8296 20H7.17042C6.69909 19.9998 6.24715 19.8124 5.91396 19.479C5.58077 19.1456 5.3936 18.6936 5.3936 18.2222V10.7742M8.50193 9.11111L8.94635 4M8.50193 9.11111C8.50193 11.6907 12.5 11.6907 12.5 9.11111M8.50193 9.11111C8.50193 11.9342 3.91987 11.3511 4.56163 8.89067L5.49048 5.32889C5.58975 4.94847 5.81232 4.61169 6.12336 4.37124C6.43441 4.13079 6.81639 4.00023 7.20953 4H17.7905C18.1836 4.00023 18.5656 4.13079 18.8766 4.37124C19.1877 4.61169 19.4103 4.94847 19.5095 5.32889L20.4384 8.89067C21.0801 11.352 16.4981 11.9342 16.4981 9.11111M12.5 9.11111V4M12.5 9.11111C12.5 11.6907 16.4981 11.6907 16.4981 9.11111M16.4981 9.11111L16.0536 4" stroke="#5BC0A4" stroke-width="2" stroke-linecap="round" stroke-linejoin="round"/>
</svg>
