<svg width="302" height="170" viewBox="0 0 302 170" fill="none" xmlns="http://www.w3.org/2000/svg">
<path d="M170 85C170 71.5949 166.829 58.3799 160.747 46.4341C154.665 34.4882 145.844 24.1502 135.004 16.2643C124.164 8.3783 111.612 3.16799 98.3743 1.05878C85.1362 -1.05043 71.5869 0.00126373 58.8329 4.12799L85 85H170Z" fill="#489896"/>
<path d="M58.7335 4.1602C43.8249 9.00432 30.5462 17.8769 20.3655 29.7969C10.1848 41.717 3.49875 56.2202 1.04649 71.7031C-1.40576 87.186 0.471329 103.045 6.47023 117.528C12.4691 132.011 22.3562 144.552 35.0382 153.766L85 85L58.7335 4.1602Z" fill="#5E68BD"/>
<path d="M115.461 164.354C102.095 169.485 87.649 171.157 73.4642 169.214C59.2793 167.27 45.8151 161.776 34.3209 153.239L85 85L115.461 164.354Z" fill="#7A8DA0"/>
<path d="M159.235 126.403C149.6 143.678 134.242 157.052 115.807 164.221L85 85L159.235 126.403Z" fill="#D7DBF0"/>
<path d="M170 85C170 99.3173 166.383 113.403 159.486 125.949L85 85H170Z" fill="#E1F4E2"/>
<path d="M257.7 26.24C258.588 26.24 259.32 26.768 259.752 27.74H261.18V25.88H262.44V36.68H261.18V32.42H259.62C259.188 33.212 258.516 33.68 257.712 33.68C256.248 33.68 255.216 32.12 255.228 29.96C255.216 27.68 256.26 26.24 257.7 26.24ZM260.052 28.7C260.124 29.084 260.16 29.504 260.16 29.96C260.16 30.512 260.1 31.016 259.98 31.46H261.18V28.7H260.052ZM257.7 27.2C257.028 27.2 256.488 28.232 256.488 29.96C256.488 31.76 256.944 32.72 257.7 32.72C258.396 32.72 258.888 31.832 258.9 29.96C258.888 28.232 258.324 27.2 257.7 27.2ZM264.72 25.88V36.68H263.46V25.88H264.72ZM269.825 26.24V27.104C269.813 28.976 270.725 30.284 272.045 30.668V31.64C270.773 31.52 269.369 30.488 269.141 29.552C268.901 30.488 267.533 31.52 266.285 31.64V30.668C267.605 30.344 268.493 28.976 268.505 27.08V26.24H269.825ZM274.805 25.88V31.88H273.545V25.88H274.805ZM274.805 36.8H273.545V33.56H267.845V32.6H274.805V36.8ZM282.609 27.08H280.629C280.701 28.652 281.613 29.852 282.849 30.152V31.16C281.697 31.064 280.137 30.032 279.945 29.108C279.681 30.032 278.241 31.064 277.089 31.16V30.152C278.361 29.852 279.225 28.652 279.309 27.08H277.269V26.12H282.609V27.08ZM285.489 28.88V34.172C285.489 35.9 283.965 36.92 282.585 36.92C281.085 36.92 279.657 35.9 279.669 34.172C279.657 32.564 281.109 31.4 282.585 31.4C283.149 31.4 283.737 31.58 284.229 31.904V25.88H285.489V27.92H287.169V28.88H285.489ZM282.585 32.36C281.805 32.36 280.929 32.996 280.929 34.172C280.929 35.252 281.757 35.96 282.573 35.96C283.365 35.96 284.229 35.276 284.229 34.172C284.217 32.972 283.389 32.36 282.585 32.36Z" fill="#333333"/>
<rect x="222" y="26" width="11" height="10" fill="#489896"/>
<path d="M261.06 53.48V54.584C261.06 56.48 262.464 58.04 264.12 58.232V59.24C262.44 59.12 260.724 58.004 260.376 56.948C259.98 57.98 258.336 59.072 256.68 59.24V58.232C258.324 57.992 259.74 56.492 259.74 54.56V53.48H261.06ZM255.6 61.16H265.2V62.12H255.6V61.16ZM267.617 53.48H274.817V54.44H268.877V57.548C268.877 57.824 269.117 58.04 269.465 58.04H274.817V59H268.805C268.121 59 267.617 58.364 267.617 57.572V53.48ZM266.405 61.16H276.005V62.12H266.405V61.16ZM278.349 54.44V59.084C278.349 59.396 278.589 59.6 278.889 59.6H280.209V54.44H278.349ZM281.469 53.48V56.396H282.789V52.88H284.049V63.68H282.789V57.356H281.469V60.56H278.301C277.629 60.56 277.089 59.96 277.089 59.168V53.48H281.469ZM286.329 52.88V63.68H285.069V52.88H286.329Z" fill="#333333"/>
<rect x="222" y="53" width="11" height="10" fill="#5E68BD"/>
<path d="M259.02 80.288V81.308C259.02 83.312 259.944 84.728 261.24 85.148V86.12C259.956 85.976 258.528 84.824 258.336 83.864C258.096 84.824 256.776 85.952 255.48 86.12V85.148C256.776 84.704 257.7 83.312 257.7 81.284V80.288H259.02ZM264 79.88V87.68H262.74V79.88H264ZM258.828 89.72H264.12V90.68H258.12C257.496 90.68 257.04 90.056 257.04 89.312V86.84H258.3V89.192C258.3 89.48 258.54 89.72 258.828 89.72ZM270.545 80.72V79.76H271.865V80.72H274.937V81.68H273.257C273.749 82.136 274.037 82.724 274.037 83.336C274.037 84.452 273.161 85.544 271.841 85.82V86.444H276.005V87.404H268.865V89.192C268.865 89.48 269.105 89.72 269.393 89.72H274.805V90.68H268.685C268.061 90.68 267.605 90.056 267.605 89.312V87.404H266.405V86.444H270.569V85.82C269.225 85.568 268.397 84.512 268.397 83.336C268.397 82.724 268.685 82.136 269.165 81.68H267.485V80.72H270.545ZM271.205 81.716C270.269 81.716 269.657 82.556 269.657 83.336C269.657 84.128 270.245 84.92 271.181 84.92C272.165 84.92 272.777 84.104 272.777 83.336C272.777 82.58 272.141 81.716 271.205 81.716ZM279.825 80.252C280.797 80.252 281.673 80.816 282.189 81.8H284.589V79.88H285.849V90.68H284.589V86.24H282.129C281.613 87.152 280.773 87.68 279.825 87.68C278.205 87.68 276.969 86.192 276.969 83.96C276.969 81.704 278.241 80.252 279.825 80.252ZM282.537 82.76C282.621 83.132 282.669 83.528 282.669 83.96C282.669 84.44 282.609 84.884 282.513 85.28H284.589V82.76H282.537ZM279.825 81.212C278.949 81.212 278.229 82.172 278.229 83.96C278.229 85.664 278.937 86.72 279.813 86.72C280.713 86.72 281.409 85.712 281.409 83.96C281.409 82.16 280.725 81.212 279.825 81.212ZM289.49 80.72V79.64H290.81V80.72H292.754V81.68H291.914C292.31 82.124 292.574 82.688 292.574 83.3C292.574 84.68 291.506 85.76 290.15 85.76C288.758 85.76 287.714 84.668 287.714 83.3C287.714 82.688 287.978 82.124 288.374 81.68H287.594V80.72H289.49ZM290.15 81.704C289.514 81.704 288.974 82.412 288.974 83.3C288.974 84.092 289.49 84.8 290.138 84.8C290.786 84.8 291.314 84.08 291.314 83.3C291.314 82.412 290.834 81.704 290.15 81.704ZM294.734 83.12V85.688C295.13 85.76 295.526 85.904 295.874 86.132V83.12H294.734ZM293.474 85.736V79.88H294.734V82.16H295.874V79.88H297.134V88.352C297.134 89.96 295.634 91.04 294.23 91.04C292.706 91.04 291.302 89.984 291.314 88.352C291.302 87.08 292.286 86.048 293.474 85.736ZM294.23 86.6C293.45 86.6 292.574 87.248 292.574 88.352C292.574 89.408 293.402 90.08 294.218 90.08C295.01 90.08 295.862 89.432 295.874 88.352C295.862 87.224 295.034 86.6 294.23 86.6Z" fill="#333333"/>
<rect x="222" y="80" width="11" height="10" fill="#7A8DA0"/>
<path d="M259.44 108.44H255.84V107.48H260.76V108.404C260.76 109.212 260.632 109.972 260.376 110.684C260.12 111.396 259.764 112.028 259.308 112.58C258.86 113.132 258.328 113.592 257.712 113.96C257.096 114.328 256.432 114.568 255.72 114.68V113.72C256.28 113.568 256.788 113.312 257.244 112.952C257.708 112.584 258.1 112.168 258.42 111.704C258.748 111.232 259 110.732 259.176 110.204C259.352 109.668 259.44 109.152 259.44 108.656V108.44ZM263.88 111.2V117.68H262.62V106.88H263.88V110.24H265.56V111.2H263.88ZM271.805 108.26H269.825V108.368C269.825 109.376 270.025 110.204 270.425 110.852C270.833 111.492 271.373 111.924 272.045 112.148V113.12C271.717 113.088 271.389 112.996 271.061 112.844C270.741 112.684 270.445 112.496 270.173 112.28C269.901 112.064 269.673 111.832 269.489 111.584C269.305 111.336 269.189 111.096 269.141 110.864C269.085 111.096 268.961 111.336 268.769 111.584C268.577 111.832 268.345 112.064 268.073 112.28C267.809 112.496 267.517 112.684 267.197 112.844C266.885 112.996 266.581 113.088 266.285 113.12V112.148C266.605 112.036 266.901 111.872 267.173 111.656C267.445 111.432 267.677 111.16 267.869 110.84C268.069 110.52 268.225 110.152 268.337 109.736C268.449 109.312 268.505 108.848 268.505 108.344V108.26H266.465V107.3H271.805V108.26ZM271.445 109.52H273.785V106.88H275.045V114.68H273.785V110.48H271.445V109.52ZM269.873 116.72H275.165V117.68H269.165C269.005 117.68 268.857 117.644 268.721 117.572C268.593 117.5 268.481 117.4 268.385 117.272C268.289 117.152 268.213 117.008 268.157 116.84C268.109 116.672 268.085 116.496 268.085 116.312V113.84H269.345V116.192C269.345 116.336 269.397 116.46 269.501 116.564C269.605 116.668 269.729 116.72 269.873 116.72ZM277.521 113.216C277.521 112.968 277.605 112.76 277.773 112.592C277.941 112.416 278.141 112.328 278.373 112.328C278.605 112.328 278.805 112.416 278.973 112.592C279.141 112.76 279.225 112.968 279.225 113.216C279.225 113.456 279.141 113.664 278.973 113.84C278.805 114.008 278.605 114.092 278.373 114.092C278.141 114.092 277.941 114.008 277.773 113.84C277.605 113.664 277.521 113.456 277.521 113.216ZM284.577 108.44H280.977V107.48H285.897V108.404C285.897 109.212 285.769 109.972 285.513 110.684C285.257 111.396 284.901 112.028 284.445 112.58C283.997 113.132 283.465 113.592 282.849 113.96C282.233 114.328 281.569 114.568 280.857 114.68V113.72C281.417 113.568 281.925 113.312 282.381 112.952C282.845 112.584 283.237 112.168 283.557 111.704C283.885 111.232 284.137 110.732 284.313 110.204C284.489 109.668 284.577 109.152 284.577 108.656V108.44ZM289.017 111.2V117.68H287.757V106.88H289.017V110.24H290.697V111.2H289.017ZM298.285 112.16C298.445 111.832 298.553 111.476 298.609 111.092C298.665 110.708 298.693 110.272 298.693 109.784V108.2H292.753V107.24H299.953V109.796C299.953 110.292 299.921 110.732 299.857 111.116C299.801 111.492 299.709 111.84 299.581 112.16H301.141V113.12H296.977V117.68H295.705V113.12H291.541V112.16H298.285Z" fill="#333333"/>
<rect x="222" y="107" width="11" height="10" fill="#D7DBF0"/>
<path d="M257.7 134.24C258.148 134.24 258.548 134.368 258.9 134.624C259.252 134.88 259.536 135.252 259.752 135.74H261.18V133.88H262.44V144.68H261.18V140.42H259.62C259.404 140.82 259.132 141.132 258.804 141.356C258.484 141.572 258.12 141.68 257.712 141.68C257.344 141.68 257.008 141.588 256.704 141.404C256.4 141.22 256.136 140.964 255.912 140.636C255.696 140.3 255.528 139.908 255.408 139.46C255.288 139.004 255.228 138.504 255.228 137.96C255.228 137.392 255.288 136.88 255.408 136.424C255.528 135.96 255.696 135.568 255.912 135.248C256.136 134.92 256.4 134.672 256.704 134.504C257.008 134.328 257.34 134.24 257.7 134.24ZM260.052 136.7C260.124 137.084 260.16 137.504 260.16 137.96C260.16 138.52 260.1 139.02 259.98 139.46H261.18V136.7H260.052ZM257.7 135.2C257.364 135.2 257.076 135.444 256.836 135.932C256.604 136.42 256.488 137.096 256.488 137.96C256.488 138.864 256.592 139.552 256.8 140.024C257.016 140.488 257.316 140.72 257.7 140.72C258.052 140.72 258.336 140.496 258.552 140.048C258.776 139.6 258.892 138.904 258.9 137.96C258.9 137.528 258.864 137.144 258.792 136.808C258.728 136.464 258.64 136.172 258.528 135.932C258.416 135.692 258.288 135.512 258.144 135.392C258 135.264 257.852 135.2 257.7 135.2ZM264.72 133.88V144.68H263.46V133.88H264.72ZM268.877 134.96V136.124C268.877 136.284 268.929 136.412 269.033 136.508C269.137 136.596 269.265 136.64 269.417 136.64H273.557V134.96H268.877ZM274.817 134V137.6H268.829C268.661 137.6 268.501 137.564 268.349 137.492C268.205 137.42 268.077 137.324 267.965 137.204C267.861 137.076 267.777 136.928 267.713 136.76C267.649 136.592 267.617 136.408 267.617 136.208V134H274.817ZM266.405 138.56H276.005V139.52H271.841V140.36H274.817V142.052C274.817 142.308 274.741 142.532 274.589 142.724C274.445 142.908 274.269 143 274.061 143H268.877V143.348C268.877 143.484 268.929 143.6 269.033 143.696C269.137 143.792 269.265 143.84 269.417 143.84H274.937V144.8H268.793C268.633 144.8 268.481 144.76 268.337 144.68C268.201 144.608 268.077 144.508 267.965 144.38C267.861 144.26 267.777 144.116 267.713 143.948C267.649 143.78 267.617 143.6 267.617 143.408V142.04H273.545V141.32H267.617V140.36H270.569V139.52H266.405V138.56ZM277.521 140.216C277.521 139.968 277.605 139.76 277.773 139.592C277.941 139.416 278.141 139.328 278.373 139.328C278.605 139.328 278.805 139.416 278.973 139.592C279.141 139.76 279.225 139.968 279.225 140.216C279.225 140.456 279.141 140.664 278.973 140.84C278.805 141.008 278.605 141.092 278.373 141.092C278.141 141.092 277.941 141.008 277.773 140.84C277.605 140.664 277.521 140.456 277.521 140.216ZM282.837 134.24C283.285 134.24 283.685 134.368 284.037 134.624C284.389 134.88 284.673 135.252 284.889 135.74H286.317V133.88H287.577V144.68H286.317V140.42H284.757C284.541 140.82 284.269 141.132 283.941 141.356C283.621 141.572 283.257 141.68 282.849 141.68C282.481 141.68 282.145 141.588 281.841 141.404C281.537 141.22 281.273 140.964 281.049 140.636C280.833 140.3 280.665 139.908 280.545 139.46C280.425 139.004 280.365 138.504 280.365 137.96C280.365 137.392 280.425 136.88 280.545 136.424C280.665 135.96 280.833 135.568 281.049 135.248C281.273 134.92 281.537 134.672 281.841 134.504C282.145 134.328 282.477 134.24 282.837 134.24ZM285.189 136.7C285.261 137.084 285.297 137.504 285.297 137.96C285.297 138.52 285.237 139.02 285.117 139.46H286.317V136.7H285.189ZM282.837 135.2C282.501 135.2 282.213 135.444 281.973 135.932C281.741 136.42 281.625 137.096 281.625 137.96C281.625 138.864 281.729 139.552 281.937 140.024C282.153 140.488 282.453 140.72 282.837 140.72C283.189 140.72 283.473 140.496 283.689 140.048C283.913 139.6 284.029 138.904 284.037 137.96C284.037 137.528 284.001 137.144 283.929 136.808C283.865 136.464 283.777 136.172 283.665 135.932C283.553 135.692 283.425 135.512 283.281 135.392C283.137 135.264 282.989 135.2 282.837 135.2ZM289.857 133.88V144.68H288.597V133.88H289.857ZM291.601 134.3H296.581V135.26H292.861V138.428C292.861 138.564 292.913 138.68 293.017 138.776C293.129 138.872 293.273 138.92 293.449 138.92H296.617C296.993 138.92 297.341 138.912 297.661 138.896C297.981 138.872 298.281 138.784 298.561 138.632V133.88H299.821V136.52H301.501V137.48H299.821V141.68H298.561V139.544C298.297 139.68 297.993 139.772 297.649 139.82C297.313 139.86 296.969 139.88 296.617 139.88H292.789C292.621 139.88 292.461 139.844 292.309 139.772C292.165 139.692 292.041 139.588 291.937 139.46C291.833 139.332 291.749 139.184 291.685 139.016C291.629 138.84 291.601 138.652 291.601 138.452V134.3ZM294.649 143.72H299.941V144.68H293.941C293.781 144.68 293.633 144.644 293.497 144.572C293.369 144.5 293.257 144.4 293.161 144.272C293.065 144.152 292.989 144.008 292.933 143.84C292.885 143.672 292.861 143.496 292.861 143.312V140.96H294.121V143.192C294.121 143.336 294.173 143.46 294.277 143.564C294.381 143.668 294.505 143.72 294.649 143.72Z" fill="#333333"/>
<rect x="222" y="134" width="11" height="10" fill="#E1F4E2"/>
</svg>
